<svg width="24" height="24" viewBox="0 0 24 24" fill="none" xmlns="http://www.w3.org/2000/svg">
<path fill-rule="evenodd" clip-rule="evenodd" d="M1.4032 12.0001C1.4032 9.18967 2.51964 6.49434 4.50693 4.50705C6.49421 2.51977 9.18955 1.40332 12 1.40332C14.8104 1.40332 17.5058 2.51977 19.4931 4.50705C21.4804 6.49434 22.5968 9.18967 22.5968 12.0001C22.5968 14.8106 21.4804 17.5059 19.4931 19.4932C17.5058 21.4805 14.8104 22.5969 12 22.5969C9.18955 22.5969 6.49421 21.4805 4.50693 19.4932C2.51964 17.5059 1.4032 14.8106 1.4032 12.0001V12.0001ZM12 2.92332C10.2407 2.92338 8.51926 3.43473 7.04521 4.39517C5.57116 5.3556 4.408 6.72372 3.69723 8.33309C2.98646 9.94245 2.75871 11.7237 3.0417 13.4601C3.32469 15.1965 4.10621 16.8133 5.2912 18.1137C6.0106 16.9869 7.00242 16.0596 8.17501 15.4175C9.3476 14.7754 10.6631 14.4393 12 14.4401C13.3369 14.4391 14.6525 14.7752 15.8251 15.4173C16.9977 16.0594 17.9895 16.9868 18.7088 18.1137C19.8938 16.8133 20.6753 15.1965 20.9583 13.4601C21.2413 11.7237 21.0135 9.94245 20.3028 8.33309C19.592 6.72372 18.4288 5.3556 16.9548 4.39517C15.4807 3.43473 13.7593 2.92338 12 2.92332V2.92332ZM17.5712 19.1665C17.005 18.1907 16.1923 17.3808 15.2145 16.8181C14.2367 16.2553 13.1282 15.9595 12 15.9601C10.8718 15.9595 9.76329 16.2553 8.7855 16.8181C7.8077 17.3808 6.99499 18.1907 6.4288 19.1665C8.02042 20.4076 9.9817 21.0801 12 21.0769C14.0992 21.0769 16.032 20.3633 17.5712 19.1665ZM8.24 10.4081C8.24 9.41091 8.63614 8.45454 9.34128 7.7494C10.0464 7.04426 11.0028 6.64812 12 6.64812C12.9972 6.64812 13.9536 7.04426 14.6587 7.7494C15.3639 8.45454 15.76 9.41091 15.76 10.4081C15.76 11.4053 15.3639 12.3617 14.6587 13.0668C13.9536 13.772 12.9972 14.1681 12 14.1681C11.0028 14.1681 10.0464 13.772 9.34128 13.0668C8.63614 12.3617 8.24 11.4053 8.24 10.4081V10.4081ZM12 8.16812C11.7058 8.16812 11.4146 8.22606 11.1428 8.33863C10.871 8.4512 10.6241 8.6162 10.4161 8.8242C10.2081 9.0322 10.0431 9.27914 9.93051 9.55091C9.81794 9.82268 9.76 10.114 9.76 10.4081C9.76 10.7023 9.81794 10.9936 9.93051 11.2653C10.0431 11.5371 10.2081 11.784 10.4161 11.992C10.6241 12.2 10.871 12.365 11.1428 12.4776C11.4146 12.5902 11.7058 12.6481 12 12.6481C12.5941 12.6481 13.1638 12.4121 13.5839 11.992C14.004 11.572 14.24 11.0022 14.24 10.4081C14.24 9.81404 14.004 9.24428 13.5839 8.8242C13.1638 8.40412 12.5941 8.16812 12 8.16812V8.16812Z" fill="black"/>
</svg>
